<svg height="512pt" preserveAspectRatio="xMidYMid meet" viewBox="0 0 512 512" width="512pt" xmlns="http://www.w3.org/2000/svg"><g transform="matrix(.1 0 0 -.1 0 512)"><path d="m0 2560v-2560h2560 2560v2560 2560h-2560-2560zm1618 1705 52-16v-52c0-29-4-57-8-63-4-7-38-26-76-44-69-31-108-34-203-14-22 4-63 68-63 97 0 19 37 51 100 87 61 34 98 35 198 5zm2010-15c55-26 62-32 62-58 0-37-24-58-80-69-33-7-59-6-95 5-58 16-74 27-86 60-16 42-3 59 59 75 76 20 69 21 140-13zm-1660-20c68-43 75-61 48-124-13-32-15-33-90-39-71-6-80-5-137 24-62 32-79 55-79 108 0 37 16 49 81 60 97 16 112 13 177-29zm1387 6c29-13 35-20 35-46 0-25-8-35-47-61-41-26-55-30-96-26-90 8-114 63-50 116 43 35 99 41 158 17zm581-77c30-29 54-58 54-66s-13-27-28-42c-26-27-31-28-86-20-61 8-109 37-149 91-16 22-17 29-7 49 19 35 28 39 98 39 62 0 64-1 118-51zm-827 4c12-10 23-31 24-47 2-25-4-33-38-53-63-36-102-40-131-12-30 28-31 59-1 86 51 46 108 56 146 26zm-1817-33c26-54 23-86-12-111-16-13-41-40-55-61s-32-38-41-38-47-7-84-16l-69-17-35 29c-47 40-52 58-24 93 13 16 34 48 48 71s34 47 45 53c31 17 126 36 170 34 35-2 42-6 57-37zm978-6c28-26 50-53 50-61 0-12-26-70-36-82-2-2-32-5-66-7-60-2-66-1-115 38-58 44-64 63-39 123l15 35h71c71 0 71 0 120-46zm1851-76c61-25 63-27 103-104l29-55-33-34c-37-38-51-42-70-20-7 8-29 19-50 25-31 8-47 22-79 70-23 33-41 63-41 66 0 4 9 22 21 40 25 41 45 43 120 12zm-1598-26c58-54 67-101 29-144-11-13-30-18-74-18-53 0-61 3-99 37-23 21-45 47-49 58-10 26 26 92 54 99 46 9 111-5 139-32zm228-118c47-32 63-63 55-108-4-19-11-38-16-41s-36-8-69-10l-60-3-46 50c-25 27-45 54-45 58 0 5 17 27 38 50 35 36 43 39 73 34 19-4 50-17 70-30zm-1788-9c28-25 37-41 32-53-4-9-16-48-28-85-16-52-29-74-52-90-16-11-44-33-61-49l-32-30-50 22c-28 12-53 29-57 38-9 25 25 158 47 182 25 27 137 100 152 100 6 0 28-16 49-35zm651-27c34-16 46-28 50-51 11-52 6-87-12-104-39-37-63-53-78-53-49 0-130 112-113 157 7 18 82 73 101 73 4 0 27-10 52-22zm224-12c15-8 38-25 51-39 19-21 22-32 16-65-7-45-25-64-74-81-50-16-66-14-100 15-29 24-31 31-31 89v63l43 15c54 20 62 20 95 3zm1740-14c19-12 22-20 16-46-14-63-66-102-103-79-23 15-45 78-37 108 11 44 69 52 124 17zm-185-3c40-18 52-50 33-87-30-59-82-68-127-23-36 36-37 57-2 93 29 30 57 35 96 17zm925-16c9-10 35-33 57-51 34-27 40-39 42-75 1-23 5-59 9-79 6-36 5-38-39-59l-45-22-43 43c-24 23-52 50-61 58-12 10-18 30-18 54 0 22-5 49-11 60-10 19-7 26 25 55 40 37 58 41 84 16zm-588-13c33-17 40-26 40-50 0-44-20-78-52-89-33-12-54-6-85 22-28 25-29 62-3 105 23 38 45 40 100 12zm-776-23c58-33 80-67 72-111-4-23-14-37-27-41-69-22-120-6-162 49-31 41-30 59 8 100 29 32 58 33 109 3zm-1532-6c13-11 30-37 37-59 11-33 11-43-2-68-25-49-53-67-103-68-42-1-49 3-90 46-49 52-49 57-1 126 29 40 33 42 82 42 37 0 60-6 77-19zm698-36c43-43 43-45 32-82-18-57-22-60-87-68l-60-6-43 41c-23 23-42 50-42 61 0 36 29 78 58 85 15 3 32 7 37 9 37 12 64 2 105-40zm1786-36c32-30 33-90 2-119-30-27-100-28-128 0-26 26-25 49 2 106 22 45 24 46 61 41 22-3 50-16 63-28zm-1609-29c7 0 31-16 53-36 42-38 50-67 30-118-9-25-14-26-80-26-67 0-73 2-101 32-19 21-29 43-29 63 0 54 49 100 95 90 11-3 26-5 32-5zm868-19c57-25 69-43 62-92-7-55-18-64-75-61-40 1-52 7-79 37-39 41-42 79-11 112 26 28 50 29 103 4zm-1917-52c37-27 42-36 42-69 0-55-7-66-57-100l-44-30-39 20c-51 26-70 55-70 106 0 37 5 47 37 73 47 39 78 39 131 0zm-488-33c21-12 26-25 36-97 13-90 14-89-35-171-32-56-34-58-74-58-57 0-66 8-82 71-28 105-18 143 62 227 43 45 55 49 93 28zm3250-2c38-26 50-45 50-81 0-87-134-112-175-34-13 27-14 35-1 65 25 61 78 82 126 50zm-1471-19c16-8 41-29 56-46 21-26 25-39 21-63-10-50-41-68-100-61-42 5-57 13-83 42-40 44-41 66-7 110 28 37 65 43 113 18zm837-25c45-28 61-63 44-96-19-35-38-43-83-35-44 7-97 54-97 85 0 13 11 35 25 51 29 30 55 29 111-5zm1105-43c61-97 63-104 49-179-8-38-18-75-24-83-16-21-106-25-115-5-4 8-20 40-34 70-25 50-26 61-20 125 7 64 11 71 42 92 50 34 72 29 102-20zm-2617-38c19-11 38-29 41-40 9-27-24-79-51-79-67 0-137 66-115 109 20 36 73 41 125 10zm921-42c53-51 57-77 17-116-39-40-88-32-149 23l-46 42 17 31c39 76 95 82 161 20zm-1656 6c57-33 70-50 71-88 0-35-48-94-77-96-63-4-94 12-122 62-20 35-21 40-7 67s70 82 83 82c4 0 27-12 52-27zm2396 12c52-25 89-69 81-98-10-40-80-50-133-17-50 30-56 51-27 93 28 42 33 43 79 22zm548-30c24-18 67-76 67-90 0-6-13-32-30-57-29-44-30-45-72-38-62 10-73 17-94 56-19 34-19 35 2 71 19 34 74 73 99 73 5 0 18-7 28-15zm-2030-47c15-11 34-33 43-50 14-26 14-32 0-52-32-49-119-38-165 20-28 35-27 40 14 81 38 38 55 38 108 1zm909-33c37-9 59-37 65-83 10-74-45-98-129-56-32 16-58 51-58 77 0 27 56 80 77 73 10-3 30-8 45-11zm-724-72c54-31 81-105 47-133-21-17-98-16-125 3-39 27-60 68-48 91 30 59 70 71 126 39zm-1512-33c8 0 19-12 25-27 5-16 19-46 31-68 15-30 18-49 13-80-3-22-6-56-5-76 1-32-3-37-38-53-22-10-48-16-58-14s-36 30-59 62c-35 52-40 66-39 111 2 68 34 142 66 148 12 2 29 3 36 1 8-2 20-4 28-4zm438-27c14-14 29-37 33-51 9-39-22-87-70-106-38-15-42-15-74 5-18 12-40 34-48 50-14 25-14 33-1 57 37 72 112 94 160 45zm2012-6c27-19 50-42 52-53 1-10-10-33-25-50-26-29-31-31-68-23-37 9-105 57-105 75 0 5 12 25 26 46 33 48 57 49 120 5zm900 3c28-10 74-74 74-102 0-18-78-98-96-98-46 0-123 68-124 108 0 41 59 101 101 102 9 0 29-5 45-10zm432-27c5-10 17-51 26-91 13-60 14-77 4-95-24-44-93-137-104-141-7-3-32 6-55 19l-44 23-3 86c-3 87-3 87 39 151 41 63 43 65 85 65 31 0 46-5 52-17zm-2038-48c26-27 34-43 34-71 0-47-21-62-85-59-39 2-56 8-80 30-38 37-43 58-24 95 31 60 97 62 155 5zm-842 15c57-30 72-45 72-72 0-14-8-36-18-48-15-19-25-22-53-16-35 6-109 64-109 84 0 14 49 72 61 72 6 0 26-9 47-20zm1717-51c24-17 46-38 49-46 7-18-10-53-37-75-19-15-25-15-57-2-36 16-80 51-80 66 0 19 51 88 66 88 9 0 35-14 59-31zm-1520-62c51-29 73-66 59-104-19-55-87-56-149-2-41 36-43 48-12 94 26 41 47 43 102 12zm867-19c40-43 46-65 27-101-18-33-29-37-84-31-57 7-112 43-121 78-6 26 18 81 38 89 7 3 33 6 57 6 39 1 48-3 83-41zm-1448-22c31-49 13-101-46-132-37-19-78-6-108 36-37 52-17 106 50 134 29 12 39 12 61 1 14-8 33-25 43-39zm2752 8c22-9 40-17 42-18 1-2 7-29 13-60 12-66 6-79-49-102s-87-18-126 20c-39 36-42 50-25 109 8 29 18 42 42 52 42 18 57 18 103-1zm-1088-71c39-24 61-70 51-107-13-44-34-56-100-56-55 0-58 1-93 45-35 43-36 45-23 77 17 41 34 55 72 60 37 6 63 0 93-19zm-883-13c50-24 70-56 60-98-9-43-28-56-76-49-30 4-52 16-80 43-22 21-39 42-39 47s9 25 21 43c25 40 53 44 114 14zm-1179-66c59-51 60-53 69-144l6-65-31-17c-44-25-56-23-111 18-61 44-65 52-73 140-6 60-4 72 11 86 45 39 66 36 129-18zm495 7c38-39 39-80 1-122-25-28-32-31-65-25-46 9-92 64-83 99 6 27 71 77 99 77 10 0 32-13 48-29zm2485-14c28-17 68-50 77-64 7-11-29-99-52-126-16-21-116-15-141 8-11 10-20 25-20 34-1 9-7 27-14 41-12 21-12 29 5 63 28 53 94 74 145 44zm-667-23c46-39 54-57 41-104-12-44-26-54-84-63-45-7-77 7-120 52-28 29-29 33-17 70 17 59 34 71 96 71 43 0 60-5 84-26zm1214 11c20-8 39-20 43-26 3-6 1-37-5-68-28-131-25-125-111-180-45-29-86-48-95-45-8 3-28 24-44 45l-29 40 23 66c19 56 32 76 84 125 66 62 79 66 134 43zm-2091-59c33-37 37-87 9-115-31-31-106-18-153 27-42 40-46 58-23 103 16 30 16 30 78 23 53-6 66-11 89-38zm-792-16c38-27 44-51 26-94-26-62-84-69-138-18-36 34-35 53 6 96 38 41 65 45 106 16zm1906 0c40-25 48-47 39-103-9-54-16-62-68-76-41-12-45-11-95 21-58 37-64 58-34 118s97 77 158 40zm209 3c34-16 75-79 75-115 0-9-19-33-42-53-47-40-68-41-138-7-28 13-36 24-38 49-6 57 14 108 50 125 42 21 50 21 93 1zm-1779-42c48-29 50-58 7-98-46-41-74-42-107-2-32 38-33 63-1 94 29 30 59 32 101 6zm-166-11c13-13 20-33 20-57 0-46-8-59-40-71-31-12-58-2-89 32-25 26-25 27-7 59 35 60 79 74 116 37zm850-55c45-44 49-65 20-112-19-31-21-32-67-26-68 9-76 13-117 62l-36 43 22 40 23 40 58-4c51-4 62-9 97-43zm-1481-61c28-11 50-31 77-72 40-61 44-87 18-127-20-31-34-31-108-1-54 22-64 31-98 88-21 35-38 67-38 71s12 19 26 32c31 29 67 32 123 9zm1696-27c29-14 74-69 75-90 0-10-6-33-14-51-13-32-15-33-75-33-60-1-63 0-114 47-50 46-51 48-38 76 31 71 37 75 94 68 29-4 61-11 72-17zm1420-48c20-22 34-46 32-53-11-28-101-148-121-161-12-8-61-18-108-21l-86-7-21 41c-12 23-21 48-21 55 0 8 28 45 63 82 55 59 67 67 107 72 25 3 54 12 65 19 32 22 50 17 90-27zm-1157-53c15-8 42-30 61-49 30-32 32-39 26-75-3-23-12-45-18-50-7-5-41-12-77-15l-65-6-54 48-55 48 18 47c10 25 25 50 34 56 25 14 99 12 130-4zm-1647-82c49-33 79-62 79-77 0-7-9-27-20-45l-21-34-62 7c-73 9-73 8-131 63-45 42-46 43-31 72 8 16 23 34 32 39 28 16 114 2 154-25zm827 10c43-30 22-83-48-119-41-21-84-12-110 25-25 36-18 54 34 85 47 28 92 32 124 9zm1172-39c57-29 80-58 80-101 0-40-23-60-80-69-85-14-126-9-172 23-63 43-71 56-64 97 12 60 35 75 116 75 55 0 81-5 120-25zm438 0c8-7 18-32 23-56 10-41 9-45-18-67-15-13-50-35-77-49-49-25-51-25-138-13-48 7-92 18-97 24-13 17-22 81-15 101 4 9 39 32 78 51 68 33 74 34 151 28 44-4 86-12 93-19zm-1818-40c32-29 24-50-32-90-52-38-52-38-102-25-57 14-86 35-86 60 0 20 35 55 70 69 37 16 126 8 150-14zm-313-4c45-21 63-45 63-85 0-22-7-27-52-41-77-23-117-19-170 14-59 38-62 44-38 83 13 23 30 35 52 39 61 12 103 9 145-10zm1017-536c26-26 9-45-41-45-40 0-44-2-41-22 2-19 10-24 45-26 49-4 73-29 73-78 0-43-28-64-92-71-62-6-98 7-98 37 0 18 7 20 65 20 36 0 65 4 65 9 0 15-23 28-62 35-59 11-90 83-50 119s110 48 136 22zm130 5c16-6 28-21 34-42 9-37 39-50 48-21 16 49 28 63 56 63 35 0 35-9-3-80-17-32-36-82-43-111-17-81-65-81-66-1 0 21-16 60-41 103-51 87-46 113 15 89zm279-2c8-7 36-40 61-72l46-59v67c0 53 3 68 16 73 32 12 41-21 38-137-1-61-5-114-8-117-16-17-60 13-101 69l-45 62v-50c0-57-18-91-44-81-14 5-16 25-16 132 0 114 2 125 18 125 10 0 26-6 35-12zm407-12c0-28-16-36-71-36h-39v-65-65h44c57 0 76-8 76-30 0-25-6-28-78-35-57-6-64-4-87 19-22 22-25 33-25 99 0 57 4 80 18 96 17 21 72 38 130 40 27 1 32-2 32-23zm-1622-13c3-18-2-22-30-25l-33-3-3-93-3-93-32 3-32 3-5 90c-5 83-7 90-27 93-12 2-27 9-33 17-23 28 0 36 98 33 91-3 97-4 100-25zm208-25c49-97 70-198 40-198-8 0-28 11-44 25-37 31-43 31-98-1-47-28-80-26-71 4 16 50 67 176 81 197 10 16 26 25 41 25 20 0 30-11 51-52zm279 38c13-9 19-28 21-62 1-27 8-63 15-81 10-25 10-34 0-46-35-43-153-63-185-32-12 12-15 37-14 108 2 123 4 127 81 127 38 0 71-6 82-14z"/><path d="m1987 1654c-4-4-7-16-7-26 0-13 7-18 26-18 21 0 25 4 22 22-3 23-27 35-41 22z"/><path d="m2242 1701c-21-13-10-46 17-49 32-5 46 11 32 37-12 22-28 26-49 12z"/><path d="m2234 1585c-8-19 3-35 26-35 32 0 50 11 50 31 0 15-7 19-35 19-22 0-38-6-41-15z"/></g></svg>